# xmcd
#
# Track frame offsets:
#	150
#	9501
#	20491
#	34254
#	45704
#	56830
#	69774
#	81406
#	92701
#	104466
#	123435
#	133622
#	146358
#	158030
#	167555
#	180657
#	191072
#	202507
#
# Disc length: 2851 seconds
#
# Revision: 2
# Processed by: cddbd v1.4PL0 Copyright (c) Steve Scherf et al.
# Submitted via: audiograbber 1.82.02
#
DISCID=ec0b2112
DTITLE=Various Artist - Country Legends
DYEAR=1900
DGENRE=Country
TTITLE0=George Jones - I Love You Because  
TTITLE1=Buck Owens - Above And Beyond
TTITLE2=Willie Nelson - Home is Where You're Happy
TTITLE3=Bobby Bare - That's How I Got To Memphis
TTITLE4=Hank Thompson - Rednecks, White Socks and Blue Ribbon Beer 
TTITLE5=Leroy Van Dyke - The Auctioneer
TTITLE6=Floyd Cramer - Fancy Pants
TTITLE7=Johnny Horton - All For The Love Of A Girl
TTITLE8=Justin Tubb - Looking Back To See
TTITLE9=Cowboy Copas - The Cowboy's Deck of Cards
TTITLE10=Jordinaires - Break My Mind
TTITLE11=Jerry Wallace - Shutters and Boards
TTITLE12=Tommy Overstreet - Heaven Is My Woman's Love
TTITLE13=Diana Trask - Say When
TTITLE14=Billy Walker - Cross The Brozos At Waco
TTITLE15=Faron Young - If You Ait's Lovin
TTITLE16=George Jones - The Window Up Above
TTITLE17=Patsy Cline - Walking after Midnight
EXTD=
EXTT0=
EXTT1=
EXTT2=
EXTT3=
EXTT4=
EXTT5=
EXTT6=
EXTT7=
EXTT8=
EXTT9=
EXTT10=
EXTT11=
EXTT12=
EXTT13=
EXTT14=
EXTT15=
EXTT16=
EXTT17=
PLAYORDER=
